<svg xmlns="http://www.w3.org/2000/svg" width="64" height="64">
<path d="M28.254 3.928C20.662 4.933 14.03 8.933 9.568 14.713c1.619 1.104 2.15 3.274 1.155 4.998a3.766 3.766 0 0 1-4.926 1.488A28.241 28.241 0 0 0 3.654 32c0 3.824.767 7.463 2.139 10.791 1.77-.864 3.925-.24 4.924 1.49.996 1.724.466 3.894-1.153 4.998 4.46 5.782 11.09 9.783 18.68 10.79.147-1.954 1.76-3.497 3.75-3.497 1.992 0 3.605 1.546 3.752 3.5 7.592-1.005 14.222-5.005 18.684-10.785-1.618-1.104-2.147-3.274-1.153-4.998a3.765 3.765 0 0 1 4.926-1.488A28.236 28.236 0 0 0 60.346 32a28.24 28.24 0 0 0-2.139-10.791c-1.77.864-3.925.24-4.924-1.49-.996-1.724-.466-3.894 1.153-4.998-4.46-5.782-11.09-9.783-18.68-10.79-.147 1.953-1.76 3.497-3.75 3.497-1.992 0-3.605-1.546-3.752-3.5z" fill="white" stroke="black" stroke-width="2"/>
</svg>
