<svg xmlns="http://www.w3.org/2000/svg" width="64" height="96">
<g stroke-width="2" stroke="#222" transform="tranlate(0.5,0)">
<path d="M3.56 20.336v54.9c0 2.513.77 4.904 2.146 7.09 1.776-.568 3.938-.158 4.94.979 1 1.132.468 2.558-1.156 3.283 4.474 3.799 11.126 6.427 18.742 7.089.147-1.284 1.765-2.298 3.762-2.298 1.999 0 3.617 1.016 3.764 2.3 7.618-.66 14.27-3.289 18.746-7.086-1.623-.725-2.154-2.15-1.156-3.283.997-1.127 3.158-1.555 4.942-.978 1.42-2.25 2.151-4.66 2.15-7.095v-54.9" fill="#eee" />
<path d="M28.242 2.297c-7.618.66-14.272 3.288-18.748 7.085 1.624.725 2.157 2.15 1.158 3.283-.997 1.127-3.158 1.555-4.942.978-1.42 2.25-2.151 4.66-2.15 7.095 0 2.512.77 4.903 2.146 7.09 1.776-.568 3.938-.158 4.94.978 1 1.133.468 2.558-1.156 3.284 4.474 3.798 11.126 6.427 18.742 7.088.147-1.284 1.765-2.297 3.762-2.297 1.999 0 3.617 1.015 3.764 2.299 7.618-.66 14.27-3.288 18.746-7.085-1.623-.725-2.154-2.15-1.156-3.284.997-1.127 3.158-1.554 4.942-.977 1.42-2.25 2.151-4.661 2.15-7.096.001-2.432-.728-4.84-2.146-7.089-1.776.568-3.938.158-4.94-.979-1-1.132-.468-2.558 1.156-3.283-4.474-3.798-11.126-6.427-18.742-7.088-.147 1.283-1.765 2.297-3.762 2.297-1.999 0-3.617-1.016-3.764-2.3z" fill="#fff" />
</g>
</svg>
