<svg xmlns="http://www.w3.org/2000/svg" width="84" height="64">
<path d="M16.502 1.768c-2.38-.07-4.772.866-6.465 2.76a8.009 8.009 0 0 0 .764 11.449l18.664 16.066-18.567 15.98a8.009 8.009 0 0 0-.765 11.45 8.32 8.32 0 0 0 6.219 2.763 8.32 8.32 0 0 0 5.445-2.011L42 42.834l20.203 17.39a8.32 8.32 0 0 0 5.445 2.012 8.313 8.313 0 0 0 6.217-2.763 8.009 8.009 0 0 0-.763-11.45l-18.565-15.98 18.664-16.066a8.01 8.01 0 0 0 .764-11.45C70.955 1.161 65.733.822 62.3 3.775L42 21.252 21.7 3.775a8.318 8.318 0 0 0-5.198-2.007z" fill="#ea2229" stroke="black" stroke-width="2"/>
</svg>
