<svg xmlns="http://www.w3.org/2000/svg" width="72" height="100">
<path fill="#d3501f" d="M 25.453125 2.7695312 C 21.488929 2.6385003 16.670184 4.8623046 13.318359 7.9667969 L 16.5 15.285156 C 12.992009 16.550486 12.089307 21.142345 18.390625 19.541016 C 18.774624 21.582344 21.193624 22.866543 20.765625 27.394531 C 16.866968 28.638528 10.04819 31.339391 9.1308594 33.636719 C 7.5748633 37.532709 5.6067182 42.995268 5.3867188 48.169922 C 5.2267191 51.875246 9.5188111 53.733623 13.105469 55.126953 C 12.858803 61.858936 5.527699 69.991957 5.9570312 83.919922 C 8.1036926 83.641256 11.930725 82.795833 14.386719 82.5625 L 12.978516 90.554688 C 8.3185273 91.017353 6.2119982 94.361294 5.5 97.251953 L 24.458984 97.251953 L 27.548828 81.490234 C 28.736825 81.408901 29.893862 81.448953 31.005859 81.376953 L 34.125 97.251953 L 53.083984 97.251953 C 52.371986 94.361294 50.240066 91.017353 45.580078 90.554688 L 43.666016 80.232422 C 46.315342 79.776423 47.547591 79.274175 48.544922 78.464844 C 48.038256 74.440854 44.406605 62.05158 44.835938 48.238281 C 48.266596 49.007613 51.365492 46.921177 52.160156 44.978516 C 54.53215 39.179863 53.483717 33.224714 54.873047 25.052734 L 53.453125 23.550781 C 54.00379 21.742786 54.542562 18.839991 54.226562 17.361328 C 53.855897 15.619999 50.999906 13.40498 48.642578 13.570312 C 45.821252 13.768979 42.951658 14.669795 43.847656 18.064453 C 41.759661 18.672452 42.498667 22.843225 44.861328 23.337891 C 44.861328 23.337891 43.758479 28.18129 41.646484 31.613281 C 39.974489 29.922619 40.15209 28.532336 38.496094 27.513672 C 36.474765 26.271008 35.34048 27.087671 31.535156 26.763672 C 31.053824 25.937007 31.127664 25.084863 31.986328 24.519531 C 33.967657 23.170201 33.334371 16.904568 31.734375 14.753906 C 32.921039 14.045908 33.748261 13.258368 33.933594 12.595703 C 34.620259 10.114376 31.109929 9.9647149 29.947266 10.498047 L 27.091797 2.9746094 C 26.567132 2.855443 26.019439 2.78825 25.453125 2.7695312 z " stroke="black" stroke-width="2" />
</svg>
