<svg xmlns="http://www.w3.org/2000/svg" width="72" height="100">
<path fill="#d3501f" d="M 25.451172 2.7714844 C 21.487869 2.6404535 16.668231 4.8642578 13.316406 7.96875 L 16.498047 15.285156 C 12.988722 16.549153 12.087354 21.143678 18.388672 19.541016 C 18.772671 21.583677 21.686114 22.867876 21.300781 27.394531 C 16.123461 29.010527 12.38182 31.525379 11.035156 33.109375 C 9.0991611 35.388036 6.2452019 39.776365 3.671875 43.929688 C 1.4412139 47.528345 2.221619 50.482786 3.9882812 52.550781 C 5.4602776 54.273444 8.3945312 57.453125 8.3945312 57.453125 C 8.6478639 57.877124 7.3810919 57.664264 6.6210938 58.933594 C 5.862429 60.201591 5.6041978 62.262091 7.6308594 63.107422 C 9.6561876 63.954086 11.065775 63.612856 12.648438 62.380859 L 12.650391 62.380859 C 10.655729 67.839512 7.7120371 74.561898 7.9707031 83.921875 C 9.9026983 83.641876 11.928772 82.796453 14.384766 82.564453 L 12.978516 90.554688 C 8.3185273 91.017353 6.2100451 94.362627 5.4980469 97.251953 L 24.458984 97.251953 L 27.546875 81.492188 C 28.734872 81.410854 29.893242 81.450286 31.003906 81.376953 L 34.123047 97.251953 L 53.083984 97.251953 C 52.371986 94.362627 50.240066 91.017353 45.580078 90.554688 L 43.664062 80.234375 C 46.313389 79.778376 45.405403 79.275508 46.302734 78.464844 C 45.974735 75.558184 44.102055 68.767498 43.275391 59.742188 C 46.743382 59.764854 49.276586 56.068808 48.169922 54.132812 C 47.135258 52.327484 45.730469 52.654297 45.730469 52.654297 C 45.730469 52.654297 50.847983 47.021703 52.445312 44.984375 C 54.581307 42.263048 46.310717 33.675515 43.525391 31.242188 C 41.09473 29.118193 40.307976 27.953325 37.083984 26.861328 C 35.869321 26.551996 33.561514 27.008291 30.992188 26.765625 C 30.557522 25.937627 31.127044 25.086816 31.984375 24.521484 C 33.967037 23.172154 33.330465 16.906521 31.730469 14.755859 C 32.917132 14.047861 33.747641 13.259701 33.931641 12.595703 C 34.619639 10.114376 31.107976 9.966668 29.945312 10.5 L 27.089844 2.9746094 C 26.565345 2.855443 26.017358 2.7902031 25.451172 2.7714844 z " stroke="black" stroke-width="2" />
</svg>
