<svg xmlns="http://www.w3.org/2000/svg" width="72" height="100">
<path fill="#d3501f" d="M 29.470703 2.765625 C 26.65071 2.7389584 23.737605 3.33092 21.849609 4.65625 L 22.046875 12.623047 C 20.785545 12.56838 17.632217 14.019781 19.185547 16.037109 C 19.598879 16.577108 20.652003 16.988027 22 17.193359 C 21.338668 19.76402 21.341589 25.746189 23.65625 26.242188 C 24.437581 26.402187 24.190674 27.504068 22.777344 27.802734 C 22.504011 27.861401 22.225254 27.99775 21.919922 28.09375 C 19.613261 28.823082 15.248541 29.000321 13.060547 32.320312 C 10.756553 35.816304 6.1962375 43.2569 5.3789062 44.851562 C 3.5869107 48.348887 5.3192458 57.269582 11.976562 59.017578 C 8.9045702 64.554898 8.1969258 78.073323 7.6835938 82.445312 C 9.567589 82.981311 12.086043 83.037777 14.720703 83.287109 L 13.382812 90.552734 C 8.782824 91.0154 6.6792274 94.361294 5.9765625 97.251953 L 24.6875 97.251953 L 27.357422 83.464844 L 31.583984 83.464844 L 34.255859 97.251953 L 52.966797 97.251953 C 52.264132 94.361294 50.159202 91.0154 45.560547 90.552734 L 44.222656 83.287109 C 46.857316 83.037777 49.375151 82.981311 51.257812 82.445312 C 50.745814 78.073323 50.038169 64.554898 46.964844 59.017578 C 53.623494 57.269582 55.354496 48.348887 53.5625 44.851562 C 52.745169 43.2569 48.186807 35.816304 45.882812 32.320312 C 43.694818 29.000321 39.326812 28.823082 37.021484 28.09375 C 36.714818 27.99775 36.440682 27.857401 36.166016 27.802734 C 34.644686 27.504068 34.503825 26.402187 35.285156 26.242188 C 37.599817 25.746189 37.604071 19.76402 36.941406 17.193359 C 38.290736 16.988027 39.342527 16.577108 39.755859 16.037109 C 41.310522 14.019781 38.157815 12.56838 36.896484 12.623047 L 37.091797 4.65625 C 35.203802 3.33092 32.290696 2.7389584 29.470703 2.765625 z " stroke="black" stroke-width="2" />
</svg>
