<svg xmlns="http://www.w3.org/2000/svg" width="72" height="100">
<path fill="#fbbf5e" d="M 37.578125 2.7695312 C 36.184316 2.8070103 34.463312 2.9937873 32.333984 3.3144531 C 25.150002 4.3957838 24.247632 6.8333147 25.154297 9.8066406 C 21.746305 11.45597 18.571533 15.493093 25.603516 15.121094 L 26.666016 14.990234 C 26.860682 18.368893 27.723813 21.226966 29.869141 22.404297 C 32.489134 23.841627 30.43027 25.533269 28.099609 26.697266 C 22.880956 29.298592 17.24913 31.351963 21.314453 33.390625 L 20.806641 34.058594 A 82.65046 -82.65046 0 0 0 18.042969 38.033203 C 15.925641 41.253195 13.506627 44.224841 24.697266 51.410156 C 16.985285 59.030137 15.166528 63.783944 18.117188 64.474609 L 17.761719 65.570312 C 15.755057 72.366296 15.82389 82.517323 7.1425781 97.251953 L 55.775391 97.251953 C 58.067218 88.798842 55.407854 75.011326 52.193359 64.472656 C 55.134877 63.776554 53.314376 59.024557 45.609375 51.410156 C 56.79868 44.224841 54.377713 41.253195 52.261719 38.033203 A 77.637139 -77.637139 0 0 0 48.992188 33.390625 C 53.054844 31.351963 47.422398 29.298592 42.205078 26.697266 L 42.162109 26.697266 C 40.119448 25.210603 37.770012 23.841627 40.388672 22.404297 C 43.068665 20.934967 43.749 16.84714 43.625 12.396484 C 52.092979 8.4324943 48.2853 7.1265251 43.445312 6.7558594 C 42.992314 3.8748666 41.759552 2.657094 37.578125 2.7695312 z "  stroke="black" stroke-width="2"/>
</svg>
