<svg xmlns="http://www.w3.org/2000/svg" width="72" height="100">
<path fill="#fbbf5e" d="M 31.421875 2.765625 C 30.045207 2.7496875 28.350808 3.0197826 26.382812 3.5507812 C 21.132159 4.9667777 17.835987 6.8049565 19.083984 10.238281 C 16.317325 11.795611 14.481926 15.706753 20.392578 14.857422 C 20.392578 15.78142 21.082057 16.343769 20.775391 17.759766 C 20.470058 19.175762 19.182757 20.252514 15.634766 19.728516 C 16.118764 21.152512 16.703501 22.906324 19.048828 23.347656 C 19.262161 23.387656 19.293468 23.680255 19.105469 23.794922 C 15.402811 26.054916 12.853067 31.348963 10.566406 37.238281 C 8.1477456 43.466266 15.603817 44.295162 19.369141 42.3125 C 20.331805 44.153829 20.343102 44.033051 21.509766 45.873047 C 14.824449 50.119703 11.18535 58.613275 11.416016 70.642578 C 11.572015 78.921224 11.572587 89.481306 2.7246094 97.251953 L 50.066406 97.251953 C 48.423744 94.562627 46.082153 91.190957 42.548828 90.765625 C 47.14215 75.054998 44.217191 59.036325 37.171875 47.429688 C 38.691871 45.731025 39.798246 43.989761 40.267578 42.009766 C 42.651572 41.448434 48.390908 39.223254 47.017578 34.447266 C 59.701546 40.109918 49.800967 48.511652 57.238281 55.292969 L 70.238281 29.605469 C 62.915633 21.873488 73.194553 14.796182 57.058594 6.4082031 C 58.805256 3.2628777 54.830115 1.1679467 52.939453 4.8359375 L 39.751953 27.501953 C 37.506625 26.033957 35.404238 24.661784 32.517578 23.564453 A 0.78933136 -0.78933136 0 0 1 32.011719 22.789062 L 32.125 20.599609 A 0.65066504 -0.65066504 0 0 1 32.617188 20.003906 C 36.581178 18.979909 38.707801 15.30097 36.369141 9.7089844 C 39.971798 8.2929879 40.817205 4.5067573 35.449219 5.3574219 C 35.127553 3.6157596 33.716322 2.7921874 31.421875 2.765625 z "  stroke="black" stroke-width="2"/>
</svg>
